<svg width="375" height="105" viewBox="0 0 375 105" fill="none" xmlns="http://www.w3.org/2000/svg">
<path d="M90.1019 62.5279L38.6262 39.765L38.6648 62.587L77.3297 79.7331L90.2567 74.012L90.1019 62.5279Z" fill="#FF8946"/>
<path fill-rule="evenodd" clip-rule="evenodd" d="M77.3297 22.6189L38.6262 39.765L90.1019 62.5279L103.029 56.9111L90.1019 51.1169L103.184 45.4409L116.265 39.765L77.3297 22.6189ZM77.3297 34.2073L90.1019 39.765L77.3297 45.4409L64.6349 39.765L77.3297 34.2073Z" fill="#FEFEFE"/>
<path d="M64.6349 39.765L77.3297 45.4409V34.2073L64.6349 39.765Z" fill="#FFB546"/>
<path d="M90.1019 39.765L77.3297 34.2073V45.4409L90.1019 39.765Z" fill="#FF8946"/>
<path d="M103.029 56.9111L90.1019 62.5279L90.2567 74.012L103.184 68.2909L103.029 56.9111Z" fill="#FFB546"/>
<path d="M90.1019 51.1169L103.029 56.9111L103.184 68.2909L116.072 62.587L116.265 39.765L103.184 45.4409L90.1019 51.1169Z" fill="#FFB546"/>
<path d="M154.814 45.4409L77.3297 11.267V22.6189L116.265 39.765L116.072 62.587L154.814 45.4409Z" fill="#FF8946"/>
<path d="M77.3297 11.267L0 45.4409L38.6648 62.587L38.6262 39.765L77.3297 22.6189V11.267Z" fill="#FFB546"/>
<g filter="url(#filter0_d_259_305)">
<path d="M328.203 63.6759C324.677 63.6759 321.522 62.9144 318.736 61.3913C315.994 59.8247 313.818 57.6925 312.207 54.9945C310.64 52.2965 309.857 49.2069 309.857 45.7256C309.857 42.2444 310.64 39.1765 312.207 36.5221C313.818 33.8241 315.994 31.6918 318.736 30.1252C321.522 28.5587 324.677 27.7754 328.203 27.7754C331.685 27.7754 334.797 28.5587 337.539 30.1252C340.325 31.6918 342.501 33.8241 344.068 36.5221C345.635 39.1765 346.418 42.2444 346.418 45.7256C346.418 49.2069 345.635 52.2965 344.068 54.9945C342.501 57.6925 340.325 59.8247 337.539 61.3913C334.797 62.9144 331.685 63.6759 328.203 63.6759ZM328.203 55.582C329.9 55.582 331.424 55.1686 332.773 54.3418C334.122 53.4714 335.167 52.2965 335.907 50.817C336.69 49.2939 337.082 47.5968 337.082 45.7256C337.082 43.8109 336.69 42.1138 335.907 40.6343C335.167 39.1112 334.122 37.9363 332.773 37.1095C331.424 36.2392 329.9 35.804 328.203 35.804C326.462 35.804 324.917 36.2392 323.567 37.1095C322.218 37.9798 321.152 39.1548 320.368 40.6343C319.585 42.1138 319.215 43.8109 319.258 45.7256C319.215 47.5968 319.585 49.2939 320.368 50.817C321.152 52.2965 322.218 53.4714 323.567 54.3418C324.917 55.1686 326.462 55.582 328.203 55.582Z" fill="#FF8946"/>
</g>
<g filter="url(#filter1_d_259_305)">
<path d="M291.642 63.0234V28.4934H300.587L300.913 39.59L299.346 37.3054C299.868 35.5213 300.717 33.9112 301.892 32.4751C303.068 30.9956 304.439 29.8424 306.006 29.0156C307.616 28.1888 309.292 27.7754 311.033 27.7754C311.773 27.7754 312.491 27.8407 313.187 27.9712C313.884 28.1018 314.471 28.2541 314.95 28.4281L312.469 38.6109C311.947 38.3498 311.316 38.1322 310.576 37.9582C309.836 37.7406 309.074 37.6318 308.291 37.6318C307.246 37.6318 306.267 37.8276 305.353 38.2193C304.482 38.5674 303.72 39.0896 303.068 39.7858C302.415 40.4386 301.892 41.2219 301.501 42.1357C301.152 43.0495 300.978 44.0504 300.978 45.1383V63.0234H291.642Z" fill="#FF8946"/>
</g>
<g filter="url(#filter2_d_259_305)">
<path d="M257.486 89.6305V28.4945H266.43L266.691 36.2621L264.994 35.6746C265.299 34.2821 266.039 32.9984 267.214 31.8235C268.432 30.6486 269.934 29.6912 271.719 28.9515C273.503 28.2117 275.375 27.8418 277.333 27.8418C280.337 27.8418 282.992 28.6251 285.298 30.1916C287.649 31.7147 289.499 33.8252 290.848 36.5232C292.241 39.1777 292.937 42.2455 292.937 45.7268C292.937 49.1645 292.263 52.2324 290.913 54.9304C289.564 57.6283 287.714 59.7606 285.364 61.3272C283.013 62.8502 280.337 63.6118 277.333 63.6118C275.331 63.6118 273.416 63.2419 271.588 62.5021C269.803 61.7188 268.28 60.6962 267.018 59.4342C265.756 58.1723 264.972 56.8233 264.668 55.3873L266.822 54.4734V89.6305H257.486ZM275.244 55.6484C276.942 55.6484 278.443 55.235 279.749 54.4082C281.055 53.5814 282.078 52.4282 282.818 50.9487C283.557 49.4256 283.927 47.685 283.927 45.7268C283.927 43.7686 283.557 42.0497 282.818 40.5702C282.078 39.0906 281.055 37.9375 279.749 37.1107C278.487 36.2839 276.985 35.8705 275.244 35.8705C273.503 35.8705 271.98 36.2839 270.674 37.1107C269.368 37.8939 268.345 39.0471 267.605 40.5702C266.866 42.0497 266.496 43.7686 266.496 45.7268C266.496 47.685 266.866 49.4256 267.605 50.9487C268.345 52.4282 269.368 53.5814 270.674 54.4082C271.98 55.235 273.503 55.6484 275.244 55.6484Z" fill="#FFB546"/>
</g>
<g filter="url(#filter3_d_259_305)">
<path d="M242.543 63.6759C239.017 63.6759 235.862 62.9144 233.076 61.3913C230.334 59.8247 228.158 57.6925 226.547 54.9945C224.98 52.2965 224.197 49.2069 224.197 45.7256C224.197 42.2444 224.98 39.1765 226.547 36.5221C228.158 33.8241 230.334 31.6918 233.076 30.1252C235.862 28.5587 239.017 27.7754 242.543 27.7754C246.025 27.7754 249.137 28.5587 251.879 30.1252C254.664 31.6918 256.841 33.8241 258.408 36.5221C259.975 39.1765 260.758 42.2444 260.758 45.7256C260.758 49.2069 259.975 52.2965 258.408 54.9945C256.841 57.6925 254.664 59.8247 251.879 61.3913C249.137 62.9144 246.025 63.6759 242.543 63.6759ZM242.543 55.582C244.24 55.582 245.764 55.1686 247.113 54.3418C248.462 53.4714 249.507 52.2965 250.247 50.817C251.03 49.2939 251.422 47.5968 251.422 45.7256C251.422 43.8109 251.03 42.1138 250.247 40.6343C249.507 39.1112 248.462 37.9363 247.113 37.1095C245.764 36.2392 244.24 35.804 242.543 35.804C240.802 35.804 239.257 36.2392 237.907 37.1095C236.558 37.9798 235.492 39.1548 234.708 40.6343C233.925 42.1138 233.555 43.8109 233.598 45.7256C233.555 47.5968 233.925 49.2939 234.708 50.817C235.492 52.2965 236.558 53.4714 237.907 54.3418C239.257 55.1686 240.802 55.582 242.543 55.582Z" fill="#FF8946"/>
</g>
<g filter="url(#filter4_d_259_305)">
<path d="M170.595 63.5398V27.4575H179.942L180.146 34.3465L178.714 34.6194C179.214 33.4371 179.874 32.3685 180.692 31.4136C181.511 30.4587 182.466 29.6401 183.558 28.9581C184.695 28.276 185.877 27.753 187.105 27.3893C188.333 26.98 189.561 26.7754 190.789 26.7754C192.654 26.7754 194.337 27.071 195.838 27.6621C197.339 28.2532 198.612 29.1854 199.658 30.4587C200.704 31.6864 201.523 33.3234 202.114 35.3697L200.614 35.2332L201.091 34.1419C201.682 33.0506 202.433 32.0729 203.342 31.2089C204.252 30.2995 205.275 29.5265 206.413 28.8899C207.55 28.2078 208.732 27.6848 209.96 27.3211C211.188 26.9573 212.393 26.7754 213.576 26.7754C216.396 26.7754 218.738 27.3438 220.603 28.4806C222.468 29.5719 223.855 31.2317 224.765 33.4598C225.72 35.688 226.197 38.4163 226.197 41.6449V63.5398H216.51V42.3269C216.51 40.6899 216.282 39.3485 215.827 38.3026C215.373 37.2568 214.713 36.4837 213.849 35.9835C212.985 35.4379 211.87 35.165 210.506 35.165C209.46 35.165 208.482 35.3469 207.572 35.7107C206.708 36.029 205.935 36.5065 205.253 37.1431C204.616 37.7342 204.116 38.4391 203.752 39.2576C203.388 40.0761 203.206 40.9855 203.206 41.9859V63.5398H193.518V42.2587C193.518 40.7581 193.268 39.4849 192.768 38.4391C192.313 37.3477 191.654 36.5292 190.789 35.9835C189.925 35.4379 188.856 35.165 187.583 35.165C186.537 35.165 185.559 35.3469 184.649 35.7107C183.785 36.029 183.035 36.5065 182.398 37.1431C181.761 37.7342 181.238 38.4391 180.829 39.2576C180.465 40.0761 180.283 40.9628 180.283 41.9177V63.5398H170.595Z" fill="#FFB546"/>
</g>
<defs>
<filter id="filter0_d_259_305" x="297.957" y="14.8754" width="64.361" height="63.7005" filterUnits="userSpaceOnUse" color-interpolation-filters="sRGB">
<feFlood flood-opacity="0" result="BackgroundImageFix"/>
<feColorMatrix in="SourceAlpha" type="matrix" values="0 0 0 0 0 0 0 0 0 0 0 0 0 0 0 0 0 0 127 0" result="hardAlpha"/>
<feOffset dx="2" dy="1"/>
<feGaussianBlur stdDeviation="6.95"/>
<feComposite in2="hardAlpha" operator="out"/>
<feColorMatrix type="matrix" values="0 0 0 0 0 0 0 0 0 0 0 0 0 0 0 0 0 0 0.2 0"/>
<feBlend mode="normal" in2="BackgroundImageFix" result="effect1_dropShadow_259_305"/>
<feBlend mode="normal" in="SourceGraphic" in2="effect1_dropShadow_259_305" result="shape"/>
</filter>
<filter id="filter1_d_259_305" x="279.742" y="14.8754" width="51.1081" height="63.048" filterUnits="userSpaceOnUse" color-interpolation-filters="sRGB">
<feFlood flood-opacity="0" result="BackgroundImageFix"/>
<feColorMatrix in="SourceAlpha" type="matrix" values="0 0 0 0 0 0 0 0 0 0 0 0 0 0 0 0 0 0 127 0" result="hardAlpha"/>
<feOffset dx="2" dy="1"/>
<feGaussianBlur stdDeviation="6.95"/>
<feComposite in2="hardAlpha" operator="out"/>
<feColorMatrix type="matrix" values="0 0 0 0 0 0 0 0 0 0 0 0 0 0 0 0 0 0 0.2 0"/>
<feBlend mode="normal" in2="BackgroundImageFix" result="effect1_dropShadow_259_305"/>
<feBlend mode="normal" in="SourceGraphic" in2="effect1_dropShadow_259_305" result="shape"/>
</filter>
<filter id="filter2_d_259_305" x="245.586" y="14.9418" width="63.2512" height="89.5887" filterUnits="userSpaceOnUse" color-interpolation-filters="sRGB">
<feFlood flood-opacity="0" result="BackgroundImageFix"/>
<feColorMatrix in="SourceAlpha" type="matrix" values="0 0 0 0 0 0 0 0 0 0 0 0 0 0 0 0 0 0 127 0" result="hardAlpha"/>
<feOffset dx="2" dy="1"/>
<feGaussianBlur stdDeviation="6.95"/>
<feComposite in2="hardAlpha" operator="out"/>
<feColorMatrix type="matrix" values="0 0 0 0 0 0 0 0 0 0 0 0 0 0 0 0 0 0 0.2 0"/>
<feBlend mode="normal" in2="BackgroundImageFix" result="effect1_dropShadow_259_305"/>
<feBlend mode="normal" in="SourceGraphic" in2="effect1_dropShadow_259_305" result="shape"/>
</filter>
<filter id="filter3_d_259_305" x="212.297" y="14.8754" width="64.361" height="63.7005" filterUnits="userSpaceOnUse" color-interpolation-filters="sRGB">
<feFlood flood-opacity="0" result="BackgroundImageFix"/>
<feColorMatrix in="SourceAlpha" type="matrix" values="0 0 0 0 0 0 0 0 0 0 0 0 0 0 0 0 0 0 127 0" result="hardAlpha"/>
<feOffset dx="2" dy="1"/>
<feGaussianBlur stdDeviation="6.95"/>
<feComposite in2="hardAlpha" operator="out"/>
<feColorMatrix type="matrix" values="0 0 0 0 0 0 0 0 0 0 0 0 0 0 0 0 0 0 0.2 0"/>
<feBlend mode="normal" in2="BackgroundImageFix" result="effect1_dropShadow_259_305"/>
<feBlend mode="normal" in="SourceGraphic" in2="effect1_dropShadow_259_305" result="shape"/>
</filter>
<filter id="filter4_d_259_305" x="158.695" y="13.8754" width="83.4021" height="64.5644" filterUnits="userSpaceOnUse" color-interpolation-filters="sRGB">
<feFlood flood-opacity="0" result="BackgroundImageFix"/>
<feColorMatrix in="SourceAlpha" type="matrix" values="0 0 0 0 0 0 0 0 0 0 0 0 0 0 0 0 0 0 127 0" result="hardAlpha"/>
<feOffset dx="2" dy="1"/>
<feGaussianBlur stdDeviation="6.95"/>
<feComposite in2="hardAlpha" operator="out"/>
<feColorMatrix type="matrix" values="0 0 0 0 0 0 0 0 0 0 0 0 0 0 0 0 0 0 0.2 0"/>
<feBlend mode="normal" in2="BackgroundImageFix" result="effect1_dropShadow_259_305"/>
<feBlend mode="normal" in="SourceGraphic" in2="effect1_dropShadow_259_305" result="shape"/>
</filter>
</defs>
</svg>
