<svg width="1058" height="291" viewBox="0 0 1058 291" fill="none" xmlns="http://www.w3.org/2000/svg">
<path d="M615.633 217.903L264.348 121.363L264.612 218.154L528.472 290.872L616.689 266.609L615.633 217.903Z" fill="#FF8946"/>
<path fill-rule="evenodd" clip-rule="evenodd" d="M528.472 48.6447L264.348 121.363L615.633 217.903L703.85 194.082L615.633 169.508L704.906 145.435L794.18 121.363L528.472 48.6447ZM528.472 97.7923L615.633 121.363L528.472 145.435L441.839 121.363L528.472 97.7923Z" fill="white"/>
<path d="M441.839 121.363L528.472 145.435V97.7923L441.839 121.363Z" fill="#FFB546"/>
<path d="M615.633 121.363L528.472 97.7923V145.435L615.633 121.363Z" fill="#FF8946"/>
<path d="M703.85 194.082L615.633 217.903L616.689 266.609L704.906 242.345L703.85 194.082Z" fill="#FFB546"/>
<path d="M615.633 169.508L703.85 194.082L704.906 242.345L792.859 218.154L794.18 121.363L704.906 145.435L615.633 169.508Z" fill="#FFB546"/>
<path d="M1057.25 145.435L528.472 0.5V48.6447L794.18 121.363L792.859 218.154L1057.25 145.435Z" fill="#FF8946"/>
<path d="M528.472 0.5L0.75293 145.435L264.612 218.154L264.348 121.363L528.472 48.6447V0.5Z" fill="#FFB546"/>
</svg>
