<svg width="155" height="70" viewBox="0 0 155 70" fill="none" xmlns="http://www.w3.org/2000/svg">
<path d="M90.1019 52.0279L38.6262 29.265L38.6648 52.087L77.3297 69.2331L90.2567 63.512L90.1019 52.0279Z" fill="#FF8946"/>
<path fill-rule="evenodd" clip-rule="evenodd" d="M77.3297 12.1189L38.6262 29.265L90.1019 52.0279L103.029 46.4111L90.1019 40.6169L103.184 34.9409L116.265 29.265L77.3297 12.1189ZM77.3297 23.7073L90.1019 29.265L77.3297 34.9409L64.6349 29.265L77.3297 23.7073Z" fill="#FEFEFE"/>
<path d="M64.6349 29.265L77.3297 34.9409V23.7073L64.6349 29.265Z" fill="#FFB546"/>
<path d="M90.1019 29.265L77.3297 23.7073V34.9409L90.1019 29.265Z" fill="#FF8946"/>
<path d="M103.029 46.4111L90.1019 52.0279L90.2567 63.512L103.184 57.7909L103.029 46.4111Z" fill="#FFB546"/>
<path d="M90.1019 40.6169L103.029 46.4111L103.184 57.7909L116.072 52.087L116.265 29.265L103.184 34.9409L90.1019 40.6169Z" fill="#FFB546"/>
<path d="M154.814 34.9409L77.3297 0.766968V12.1189L116.265 29.265L116.072 52.087L154.814 34.9409Z" fill="#FF8946"/>
<path d="M77.3297 0.766968L0 34.9409L38.6648 52.087L38.6262 29.265L77.3297 12.1189V0.766968Z" fill="#FFB546"/>
</svg>
