<svg width="505" height="590" viewBox="0 0 505 590" fill="none" xmlns="http://www.w3.org/2000/svg">
<g clip-path="url(#clip0_227_1762)">
<path d="M259.434 6.41417L259.434 127.82L380.739 127.82L380.739 6.41417L259.434 6.41417Z" fill="#F9ECA4"/>
<path d="M491.473 41.3022L483.959 41.1247L483.959 35.7988L491.473 35.7988L491.473 41.3022Z" fill="black" fill-opacity="0.35"/>
<path d="M258.938 464.748C258.937 526.689 208.724 576.906 146.783 576.906L138.007 576.906C138.007 514.965 188.221 464.751 250.162 464.751L258.937 464.751L258.938 464.748Z" fill="#E9A650"/>
<path d="M258.937 464.686C258.937 464.716 258.911 464.742 258.881 464.742L242.146 464.742C184.63 464.742 138.007 418.116 138.007 360.603L138.007 352.645C138.007 352.615 138.034 352.588 138.064 352.588L146.84 352.588C208.75 352.588 258.937 402.775 258.937 464.686Z" fill="#E9A650"/>
<path d="M258.984 464.76L379.914 464.76L379.914 576.914L371.138 576.914C309.197 576.914 258.984 526.701 258.984 464.76Z" fill="#DC4245"/>
<path d="M379.867 352.588C379.867 414.529 329.653 464.742 267.713 464.742L258.937 464.742L258.937 352.588L379.867 352.588Z" fill="#1C1C61"/>
<path d="M258.938 240.465L258.937 352.623L138.007 352.623C138.007 290.682 188.221 240.468 250.162 240.468L258.938 240.465Z" fill="#DC4245"/>
<path d="M138.004 128.308L138.004 240.463L258.938 240.463L258.938 128.308L138.004 128.308Z" fill="#F9ECA4"/>
<path d="M317.166 128.303L321.638 128.303C353.797 128.303 379.867 154.373 379.867 186.532L379.867 240.457L258.937 240.457L258.937 186.532C258.937 154.376 285.007 128.303 317.166 128.303Z" fill="#F9ECA4"/>
<path d="M258.937 296.542C258.937 265.571 284.046 240.463 315.016 240.463L379.871 240.463L379.871 296.542C379.871 327.512 354.766 352.621 323.792 352.621L315.016 352.621C284.046 352.621 258.937 327.512 258.937 296.542Z" fill="#F9ECA4"/>
<path d="M259.082 128.649L138.205 129.249L138.205 61.8649C138.205 36.9908 165.236 7.25976 198.582 7.25976L198.706 7.25976C232.051 7.25976 259.082 36.9908 259.082 61.8649L259.082 128.649Z" fill="#E9A650"/>
<path d="M258.82 239.796C258.82 239.829 258.794 239.853 258.763 239.853L242.099 239.853C184.828 239.853 138.402 193.427 138.402 136.156L138.402 128.231C138.402 128.197 138.429 128.174 138.459 128.174L147.198 128.174C208.848 128.177 258.82 178.15 258.82 239.796Z" fill="#3F6FD5"/>
<path d="M317.166 128.303L321.638 128.303C353.797 128.303 379.867 154.373 379.867 186.532L379.867 240.457L258.937 240.457L258.937 186.532C258.937 154.376 285.007 128.303 317.166 128.303Z" fill="#DC4245"/>
<path d="M362.973 68.3535L321.813 6.99219L278.134 68.3535L362.973 68.3535Z" fill="#3F6FD5"/>
<path d="M362.973 128.418L321.813 67.0566L278.134 128.418L362.973 128.418Z" fill="#3F6FD5"/>
<path d="M235.868 128.831L161.389 129.239L161.42 69.2046C161.42 52.7179 178.07 33.0156 198.607 33.0156L198.684 33.0156C219.22 33.0156 235.871 52.7213 235.871 69.2046L235.868 128.831Z" fill="#1C1C61"/>
<path d="M440.75 352.056C406.584 352.056 378.886 327.155 378.886 296.439L502.617 296.439C502.617 327.155 474.919 352.056 440.75 352.056Z" fill="#DC4245"/>
<path d="M440.75 296.798C406.584 296.798 378.886 271.897 378.886 241.182L502.617 241.182C502.617 271.897 474.919 296.798 440.75 296.798Z" fill="#3F6FD5"/>
<path d="M502.432 241.181C502.429 241.214 502.399 241.238 502.365 241.234L485.188 240.105C422.956 236.012 376.018 185.028 380.349 126.229L380.949 118.093C380.952 118.06 380.982 118.036 381.016 118.039L389.581 118.602C456.569 123.01 507.095 177.89 502.432 241.181Z" fill="#E9A650"/>
<path d="M501.883 6.37109L501.883 118.033L380.952 118.033C380.952 56.3638 430.945 6.37109 492.614 6.37109L501.883 6.37109Z" fill="#DC4245"/>
<path d="M490.086 575.838L379.733 575.838L379.877 351.854L490.086 351.609L490.086 575.838Z" fill="#E9A650"/>
<path d="M430.92 351.609L379.738 351.609L379.738 464.508L430.92 464.508L430.92 351.609Z" fill="#F9ECA4"/>
<path d="M505.001 464.283L430.918 464.283L430.918 576.364L505.001 576.364L505.001 464.283Z" fill="#DC4245"/>
<g filter="url(#filter0_d_227_1762)">
<path d="M35.1406 215.646C35.1406 215.087 35.5952 214.633 36.1543 214.633H36.6618V250.965H36.1543C35.5939 250.965 35.1406 250.511 35.1406 249.951V215.646Z" fill="black"/>
<path d="M35.1406 169.512C35.1406 168.951 35.5952 168.498 36.1543 168.498H36.6618V204.83H36.1543C35.5939 204.83 35.1406 204.377 35.1406 203.817V169.512Z" fill="black"/>
<path d="M34.293 135.039C34.293 134.479 34.7475 134.025 35.3066 134.025H36.6586V151.938H35.3066C34.7462 151.938 34.293 151.484 34.293 150.925V135.039Z" fill="black"/>
<path d="M268.512 193.676H269.019C269.578 193.676 270.033 194.13 270.033 194.689V249.948C270.033 250.508 269.578 250.962 269.019 250.962H268.512V193.676Z" fill="black"/>
<path d="M36.6562 134.193V152.021" stroke="black" stroke-width="0.1309"/>
<path d="M36.6562 168.668V204.747" stroke="black" stroke-width="0.1309"/>
<path d="M79.0732 41.9258H226.094C249.52 41.9258 268.51 60.9158 268.51 84.3414V478.423C268.51 501.849 249.52 520.839 226.094 520.839H79.0732C55.6475 520.839 36.6562 501.849 36.6562 478.423V84.3414C36.6575 60.9158 55.6475 41.9258 79.0732 41.9258Z" fill="black"/>
<path d="M81.4425 47.6719H223.731C245.29 47.6719 262.767 65.1497 262.767 86.7082V476.059C262.767 497.618 245.289 515.095 223.731 515.095H81.4425C59.8828 515.095 42.4063 497.617 42.4063 476.059V86.7082C42.405 65.1497 59.8828 47.6719 81.4425 47.6719Z" fill="#FBF5E2" stroke="black" stroke-width="5.2347"/>
<path d="M85.3281 518.219L88.7075 518.303V520.838H85.3281V518.219Z" fill="black" fill-opacity="0.35"/>
<path d="M265.977 92.2852H268.511V95.6645H265.977V92.2852Z" fill="black" fill-opacity="0.35"/>
<path d="M265.975 468.621H268.509V472H265.891L265.975 468.621Z" fill="black" fill-opacity="0.35"/>
<path d="M177.756 44.459C177.669 45.5928 176.721 46.4863 175.566 46.4863H129.6C128.443 46.4863 127.497 45.5928 127.41 44.459H152.583H177.756Z" fill="black" stroke="#272727" stroke-width="0.2617"/>
<path d="M216.801 41.9258H220.18V44.5446L216.801 44.3754V41.9258Z" fill="black" fill-opacity="0.35"/>
<path d="M36.6562 92.9609H39.1911L39.1072 96.2564L36.6562 96.3416V92.9609Z" fill="black" fill-opacity="0.35"/>
<path d="M36.6562 468.621H39.1072L39.1911 472H36.6562V468.621Z" fill="black" fill-opacity="0.35"/>
<path d="M176.329 61.1914C179.828 61.1914 182.666 64.0284 182.666 67.5279C182.666 71.0273 179.829 73.8656 176.329 73.8656C172.829 73.8656 169.992 71.0286 169.992 67.5279C169.991 64.0284 172.829 61.1914 176.329 61.1914Z" fill="#D7D7D7"/>
<path d="M128.334 57.8105H175.989C181.355 57.8105 185.706 62.161 185.706 67.5277C185.706 72.8943 181.355 77.2448 175.989 77.2448H128.334C122.968 77.2448 118.617 72.8943 118.617 67.5277C118.617 62.161 122.968 57.8105 128.334 57.8105Z" fill="black"/>
<path d="M173.372 71.244C175.432 71.244 177.175 69.6195 177.175 67.5263C177.175 65.4331 175.432 63.8086 173.372 63.8086C171.312 63.8086 169.57 65.4331 169.57 67.5263C169.569 69.6195 171.312 71.244 173.372 71.244Z" fill="url(#paint0_linear_227_1762)" fill-opacity="0.38" stroke="#131416" stroke-width="1.963"/>
<mask id="mask0_227_1762" style="mask-type:alpha" maskUnits="userSpaceOnUse" x="43" y="49" width="219" height="466">
<path d="M83.0838 50.8945H221.871C242.901 50.8945 259.947 68.1639 259.947 89.4652V474.172C259.947 495.475 242.901 512.743 221.871 512.743H83.0838C62.0545 512.743 45.0078 495.473 45.0078 474.172V89.4652C45.0078 68.1639 62.0545 50.8945 83.0838 50.8945Z" fill="#FBF5E2" stroke="black" stroke-width="3.16677"/>
</mask>
<g mask="url(#mask0_227_1762)">
<rect x="269.291" y="46.75" width="470.292" height="227.993" transform="rotate(90 269.291 46.75)" fill="#F9ECA4" fill-opacity="0.41"/>
<rect width="460.096" height="228.705" transform="matrix(0.484461 -0.874813 0.869422 0.49407 -200.01 240.465)" fill="#FFB546"/>
<rect width="471.324" height="238.832" transform="matrix(0.995129 0.0985768 -0.0953152 0.995447 -44.6973 -191.57)" fill="#DC4245"/>
<rect width="456.466" height="230.52" transform="matrix(0.921366 -0.388697 0.380237 0.924889 6.83594 442.168)" fill="#11709B"/>
<rect width="458.568" height="229.473" transform="matrix(0.701128 0.713035 -0.703924 0.710275 -1.29883 273.021)" fill="#FF7222"/>
<path d="M104.498 299.975V293.603H106.322L106.382 294.755L106.13 294.767C106.226 294.559 106.346 294.375 106.49 294.215C106.642 294.055 106.81 293.923 106.994 293.819C107.186 293.707 107.382 293.623 107.582 293.567C107.79 293.511 107.998 293.483 108.206 293.483C108.518 293.483 108.802 293.531 109.058 293.627C109.314 293.723 109.538 293.879 109.73 294.095C109.922 294.303 110.074 294.587 110.186 294.947L109.886 294.923L109.982 294.731C110.086 294.539 110.218 294.367 110.378 294.215C110.546 294.055 110.73 293.923 110.93 293.819C111.13 293.707 111.338 293.623 111.554 293.567C111.77 293.511 111.978 293.483 112.178 293.483C112.682 293.483 113.102 293.583 113.438 293.783C113.774 293.975 114.026 294.267 114.194 294.659C114.37 295.051 114.458 295.527 114.458 296.087V299.975H112.526V296.243C112.526 295.987 112.49 295.775 112.418 295.607C112.346 295.439 112.238 295.315 112.094 295.235C111.958 295.147 111.786 295.103 111.578 295.103C111.41 295.103 111.254 295.131 111.11 295.187C110.974 295.243 110.854 295.319 110.75 295.415C110.654 295.511 110.578 295.623 110.522 295.751C110.466 295.879 110.438 296.023 110.438 296.183V299.975H108.506V296.231C108.506 295.991 108.47 295.787 108.398 295.619C108.326 295.451 108.218 295.323 108.074 295.235C107.93 295.147 107.762 295.103 107.57 295.103C107.402 295.103 107.246 295.131 107.102 295.187C106.966 295.243 106.846 295.319 106.742 295.415C106.646 295.511 106.57 295.623 106.514 295.751C106.458 295.879 106.43 296.019 106.43 296.171V299.975H104.498ZM119.485 300.083C118.949 300.083 118.469 299.943 118.045 299.663C117.629 299.375 117.297 298.983 117.049 298.487C116.801 297.983 116.677 297.415 116.677 296.783C116.677 296.135 116.801 295.563 117.049 295.067C117.297 294.571 117.637 294.183 118.069 293.903C118.501 293.615 118.993 293.471 119.545 293.471C119.849 293.471 120.125 293.515 120.373 293.603C120.629 293.691 120.853 293.815 121.045 293.975C121.237 294.127 121.401 294.307 121.537 294.515C121.673 294.715 121.773 294.931 121.837 295.163L121.441 295.115V293.603H123.349V299.975H121.405V298.439L121.837 298.427C121.773 298.651 121.669 298.863 121.525 299.063C121.381 299.263 121.205 299.439 120.997 299.591C120.789 299.743 120.557 299.863 120.301 299.951C120.045 300.039 119.773 300.083 119.485 300.083ZM120.013 298.463C120.309 298.463 120.565 298.395 120.781 298.259C120.997 298.123 121.165 297.931 121.285 297.683C121.405 297.427 121.465 297.127 121.465 296.783C121.465 296.439 121.405 296.143 121.285 295.895C121.165 295.639 120.997 295.443 120.781 295.307C120.565 295.163 120.309 295.091 120.013 295.091C119.725 295.091 119.473 295.163 119.257 295.307C119.049 295.443 118.885 295.639 118.765 295.895C118.645 296.143 118.585 296.439 118.585 296.783C118.585 297.127 118.645 297.427 118.765 297.683C118.885 297.931 119.049 298.123 119.257 298.259C119.473 298.395 119.725 298.463 120.013 298.463ZM128.535 300.107C127.983 300.107 127.491 299.967 127.059 299.687C126.635 299.399 126.299 299.007 126.051 298.511C125.803 298.007 125.679 297.435 125.679 296.795C125.679 296.155 125.803 295.587 126.051 295.091C126.299 294.587 126.639 294.191 127.071 293.903C127.503 293.615 127.999 293.471 128.559 293.471C128.847 293.471 129.123 293.515 129.387 293.603C129.651 293.691 129.891 293.811 130.107 293.963C130.323 294.115 130.499 294.291 130.635 294.491C130.771 294.683 130.851 294.883 130.875 295.091L130.419 295.199V291.095H132.351V299.975H130.563L130.455 298.523L130.839 298.583C130.815 298.783 130.735 298.975 130.599 299.159C130.471 299.343 130.303 299.507 130.095 299.651C129.887 299.787 129.647 299.895 129.375 299.975C129.111 300.063 128.831 300.107 128.535 300.107ZM129.027 298.511C129.323 298.511 129.579 298.439 129.795 298.295C130.011 298.151 130.175 297.951 130.287 297.695C130.407 297.439 130.467 297.139 130.467 296.795C130.467 296.443 130.407 296.139 130.287 295.883C130.175 295.627 130.011 295.427 129.795 295.283C129.579 295.139 129.323 295.067 129.027 295.067C128.731 295.067 128.475 295.139 128.259 295.283C128.051 295.427 127.887 295.627 127.767 295.883C127.647 296.139 127.587 296.443 127.587 296.795C127.587 297.139 127.647 297.439 127.767 297.695C127.887 297.951 128.051 298.151 128.259 298.295C128.475 298.439 128.731 298.511 129.027 298.511ZM138.091 300.095C137.387 300.095 136.775 299.955 136.255 299.675C135.735 299.387 135.331 298.999 135.043 298.511C134.755 298.015 134.611 297.451 134.611 296.819C134.611 296.331 134.691 295.883 134.851 295.475C135.011 295.067 135.235 294.715 135.523 294.419C135.811 294.115 136.151 293.883 136.543 293.723C136.943 293.555 137.379 293.471 137.851 293.471C138.299 293.471 138.707 293.551 139.075 293.711C139.451 293.871 139.775 294.095 140.047 294.383C140.319 294.671 140.527 295.011 140.671 295.403C140.815 295.795 140.879 296.223 140.863 296.687L140.851 297.203H135.775L135.499 296.123H139.291L139.087 296.351V296.111C139.071 295.911 139.007 295.735 138.895 295.583C138.791 295.423 138.651 295.299 138.475 295.211C138.299 295.123 138.099 295.079 137.875 295.079C137.563 295.079 137.295 295.143 137.071 295.271C136.855 295.391 136.691 295.571 136.579 295.811C136.467 296.043 136.411 296.331 136.411 296.675C136.411 297.027 136.483 297.335 136.627 297.599C136.779 297.855 136.995 298.055 137.275 298.199C137.563 298.343 137.903 298.415 138.295 298.415C138.567 298.415 138.807 298.375 139.015 298.295C139.231 298.215 139.463 298.079 139.711 297.887L140.611 299.159C140.363 299.375 140.099 299.551 139.819 299.687C139.539 299.823 139.251 299.923 138.955 299.987C138.667 300.059 138.379 300.095 138.091 300.095ZM99.0488 312.095C98.4248 312.095 97.8728 311.995 97.3928 311.795C96.9208 311.595 96.5448 311.327 96.2648 310.991L97.4288 309.983C97.6768 310.231 97.9568 310.415 98.2688 310.535C98.5808 310.647 98.8768 310.703 99.1568 310.703C99.2688 310.703 99.3688 310.691 99.4568 310.667C99.5448 310.643 99.6168 310.611 99.6728 310.571C99.7368 310.523 99.7848 310.471 99.8168 310.415C99.8488 310.351 99.8648 310.279 99.8648 310.199C99.8648 310.039 99.7928 309.915 99.6488 309.827C99.5768 309.787 99.4568 309.739 99.2888 309.683C99.1208 309.627 98.9048 309.563 98.6408 309.491C98.2648 309.395 97.9368 309.283 97.6568 309.155C97.3848 309.019 97.1608 308.863 96.9848 308.687C96.8248 308.519 96.7008 308.335 96.6128 308.135C96.5248 307.927 96.4808 307.695 96.4808 307.439C96.4808 307.143 96.5488 306.875 96.6848 306.635C96.8288 306.395 97.0168 306.187 97.2488 306.011C97.4888 305.835 97.7608 305.703 98.0648 305.615C98.3768 305.519 98.6968 305.471 99.0248 305.471C99.3768 305.471 99.7128 305.511 100.033 305.591C100.353 305.671 100.649 305.783 100.921 305.927C101.201 306.071 101.449 306.243 101.665 306.443L100.657 307.571C100.513 307.435 100.349 307.315 100.165 307.211C99.9888 307.099 99.8048 307.011 99.6128 306.947C99.4208 306.883 99.2448 306.851 99.0848 306.851C98.9648 306.851 98.8568 306.863 98.7608 306.887C98.6728 306.903 98.5968 306.935 98.5328 306.983C98.4688 307.023 98.4208 307.075 98.3888 307.139C98.3568 307.195 98.3408 307.263 98.3408 307.343C98.3408 307.423 98.3608 307.499 98.4008 307.571C98.4488 307.643 98.5128 307.703 98.5928 307.751C98.6728 307.799 98.8008 307.855 98.9768 307.919C99.1528 307.975 99.3928 308.047 99.6968 308.135C100.073 308.239 100.397 308.355 100.669 308.483C100.941 308.611 101.157 308.763 101.317 308.939C101.445 309.075 101.541 309.235 101.605 309.419C101.669 309.595 101.701 309.787 101.701 309.995C101.701 310.403 101.585 310.767 101.353 311.087C101.129 311.399 100.817 311.647 100.417 311.831C100.017 312.007 99.5608 312.095 99.0488 312.095ZM104.03 311.975V305.603H105.95V311.975H104.03ZM104.99 304.343C104.63 304.343 104.346 304.259 104.138 304.091C103.938 303.915 103.838 303.667 103.838 303.347C103.838 303.059 103.942 302.823 104.15 302.639C104.358 302.455 104.638 302.363 104.99 302.363C105.35 302.363 105.63 302.451 105.83 302.627C106.03 302.795 106.13 303.035 106.13 303.347C106.13 303.643 106.026 303.883 105.818 304.067C105.618 304.251 105.342 304.343 104.99 304.343ZM108.822 311.975V305.603H110.646L110.706 306.755L110.454 306.767C110.55 306.559 110.67 306.375 110.814 306.215C110.966 306.055 111.134 305.923 111.318 305.819C111.51 305.707 111.706 305.623 111.906 305.567C112.114 305.511 112.322 305.483 112.53 305.483C112.842 305.483 113.126 305.531 113.382 305.627C113.638 305.723 113.862 305.879 114.054 306.095C114.246 306.303 114.398 306.587 114.51 306.947L114.21 306.923L114.306 306.731C114.41 306.539 114.542 306.367 114.702 306.215C114.87 306.055 115.054 305.923 115.254 305.819C115.454 305.707 115.662 305.623 115.878 305.567C116.094 305.511 116.302 305.483 116.502 305.483C117.006 305.483 117.426 305.583 117.762 305.783C118.098 305.975 118.35 306.267 118.518 306.659C118.694 307.051 118.782 307.527 118.782 308.087V311.975H116.85V308.243C116.85 307.987 116.814 307.775 116.742 307.607C116.67 307.439 116.562 307.315 116.418 307.235C116.282 307.147 116.11 307.103 115.902 307.103C115.734 307.103 115.578 307.131 115.434 307.187C115.298 307.243 115.178 307.319 115.074 307.415C114.978 307.511 114.902 307.623 114.846 307.751C114.79 307.879 114.762 308.023 114.762 308.183V311.975H112.83V308.231C112.83 307.991 112.794 307.787 112.722 307.619C112.65 307.451 112.542 307.323 112.398 307.235C112.254 307.147 112.086 307.103 111.894 307.103C111.726 307.103 111.57 307.131 111.426 307.187C111.29 307.243 111.17 307.319 111.066 307.415C110.97 307.511 110.894 307.623 110.838 307.751C110.782 307.879 110.754 308.019 110.754 308.171V311.975H108.822ZM121.457 314.615V305.603H123.281L123.353 307.031L122.993 306.923C123.049 306.659 123.185 306.419 123.401 306.203C123.617 305.987 123.889 305.815 124.217 305.687C124.553 305.551 124.905 305.483 125.273 305.483C125.817 305.483 126.301 305.627 126.725 305.915C127.149 306.195 127.481 306.583 127.721 307.079C127.969 307.567 128.093 308.135 128.093 308.783C128.093 309.423 127.969 309.991 127.721 310.487C127.481 310.983 127.145 311.375 126.713 311.663C126.289 311.943 125.801 312.083 125.249 312.083C124.889 312.083 124.545 312.015 124.217 311.879C123.889 311.743 123.613 311.559 123.389 311.327C123.165 311.095 123.017 310.843 122.945 310.571L123.389 310.403V314.615H121.457ZM124.781 310.463C125.069 310.463 125.321 310.395 125.537 310.259C125.753 310.115 125.921 309.919 126.041 309.671C126.161 309.423 126.221 309.127 126.221 308.783C126.221 308.447 126.161 308.155 126.041 307.907C125.921 307.651 125.753 307.455 125.537 307.319C125.329 307.175 125.077 307.103 124.781 307.103C124.485 307.103 124.229 307.171 124.013 307.307C123.797 307.443 123.629 307.639 123.509 307.895C123.389 308.151 123.329 308.447 123.329 308.783C123.329 309.127 123.389 309.423 123.509 309.671C123.629 309.919 123.797 310.115 124.013 310.259C124.229 310.395 124.485 310.463 124.781 310.463ZM130.459 311.975V303.095H132.379V311.975H130.459ZM138.091 312.095C137.387 312.095 136.775 311.955 136.255 311.675C135.735 311.387 135.331 310.999 135.043 310.511C134.755 310.015 134.611 309.451 134.611 308.819C134.611 308.331 134.691 307.883 134.851 307.475C135.011 307.067 135.235 306.715 135.523 306.419C135.811 306.115 136.151 305.883 136.543 305.723C136.943 305.555 137.379 305.471 137.851 305.471C138.299 305.471 138.707 305.551 139.075 305.711C139.451 305.871 139.775 306.095 140.047 306.383C140.319 306.671 140.527 307.011 140.671 307.403C140.815 307.795 140.879 308.223 140.863 308.687L140.851 309.203H135.775L135.499 308.123H139.291L139.087 308.351V308.111C139.071 307.911 139.007 307.735 138.895 307.583C138.791 307.423 138.651 307.299 138.475 307.211C138.299 307.123 138.099 307.079 137.875 307.079C137.563 307.079 137.295 307.143 137.071 307.271C136.855 307.391 136.691 307.571 136.579 307.811C136.467 308.043 136.411 308.331 136.411 308.675C136.411 309.027 136.483 309.335 136.627 309.599C136.779 309.855 136.995 310.055 137.275 310.199C137.563 310.343 137.903 310.415 138.295 310.415C138.567 310.415 138.807 310.375 139.015 310.295C139.231 310.215 139.463 310.079 139.711 309.887L140.611 311.159C140.363 311.375 140.099 311.551 139.819 311.687C139.539 311.823 139.251 311.923 138.955 311.987C138.667 312.059 138.379 312.095 138.091 312.095ZM115.08 323.975L112.98 317.603H115.008L116.184 321.743L115.932 321.695L117.252 318.479H118.38L119.772 321.707L119.496 321.731L120.672 317.603H122.7L120.528 323.975H119.112L117.732 320.555L117.876 320.579L116.496 323.975H115.08ZM124.883 323.975V317.603H126.803V323.975H124.883ZM125.843 316.343C125.483 316.343 125.199 316.259 124.991 316.091C124.791 315.915 124.691 315.667 124.691 315.347C124.691 315.059 124.795 314.823 125.003 314.639C125.211 314.455 125.491 314.363 125.843 314.363C126.203 314.363 126.483 314.451 126.683 314.627C126.883 314.795 126.983 315.035 126.983 315.347C126.983 315.643 126.879 315.883 126.671 316.067C126.471 316.251 126.195 316.343 125.843 316.343ZM130.215 323.975V315.995H132.135V323.975H130.215ZM129.087 319.283V317.603H133.371V319.283H129.087ZM135.549 323.975V315.095H137.433V318.899L137.049 319.043C137.137 318.755 137.293 318.495 137.517 318.263C137.749 318.023 138.025 317.831 138.345 317.687C138.665 317.543 139.001 317.471 139.353 317.471C139.833 317.471 140.237 317.571 140.565 317.771C140.893 317.963 141.141 318.255 141.309 318.647C141.477 319.031 141.561 319.503 141.561 320.063V323.975H139.629V320.219C139.629 319.963 139.593 319.751 139.521 319.583C139.449 319.415 139.337 319.291 139.185 319.211C139.041 319.123 138.861 319.083 138.645 319.091C138.477 319.091 138.321 319.119 138.177 319.175C138.033 319.223 137.909 319.299 137.805 319.403C137.701 319.499 137.617 319.611 137.553 319.739C137.497 319.867 137.469 320.007 137.469 320.159V323.975H136.521C136.297 323.975 136.105 323.975 135.945 323.975C135.785 323.975 135.653 323.975 135.549 323.975Z" fill="#020202"/>
<path d="M78.3477 280.855H221.449" stroke="#020202" stroke-width="1.46432" stroke-linecap="round"/>
<path d="M87.2206 269.738V258.409L87.4478 260L78.2611 247.015H85.4677L92.4794 257.078L88.6814 256.981L95.0115 247.015H102.023L93.2261 260.357L93.713 258.149V269.738H87.2206ZM107.934 270.063C106.094 270.063 104.449 269.673 102.999 268.894C101.549 268.115 100.413 267.055 99.5909 265.713C98.7685 264.371 98.3573 262.824 98.3573 261.071C98.3573 259.318 98.7685 257.771 99.5909 256.429C100.413 255.087 101.549 254.027 102.999 253.248C104.449 252.469 106.094 252.079 107.934 252.079C109.773 252.079 111.407 252.469 112.835 253.248C114.285 254.027 115.422 255.087 116.244 256.429C117.066 257.771 117.477 259.318 117.477 261.071C117.477 262.824 117.066 264.371 116.244 265.713C115.422 267.055 114.285 268.115 112.835 268.894C111.407 269.673 109.773 270.063 107.934 270.063ZM107.934 264.966C108.583 264.966 109.167 264.804 109.687 264.479C110.228 264.133 110.639 263.668 110.92 263.084C111.223 262.478 111.375 261.807 111.375 261.071C111.375 260.292 111.223 259.61 110.92 259.026C110.639 258.442 110.228 257.987 109.687 257.662C109.167 257.316 108.583 257.143 107.934 257.143C107.263 257.143 106.668 257.316 106.148 257.662C105.629 257.987 105.218 258.452 104.915 259.058C104.612 259.643 104.46 260.313 104.46 261.071C104.46 261.807 104.612 262.478 104.915 263.084C105.218 263.668 105.629 264.133 106.148 264.479C106.668 264.804 107.263 264.966 107.934 264.966ZM124.987 270.095C123.689 270.095 122.585 269.825 121.676 269.284C120.767 268.721 120.075 267.92 119.599 266.882C119.123 265.843 118.884 264.588 118.884 263.116V252.436H124.922V262.499C124.922 263.062 125.02 263.538 125.215 263.928C125.409 264.317 125.68 264.62 126.026 264.837C126.372 265.031 126.794 265.129 127.292 265.129C127.682 265.129 128.028 265.075 128.331 264.966C128.655 264.858 128.926 264.696 129.142 264.479C129.359 264.241 129.532 263.982 129.662 263.7C129.792 263.397 129.857 263.073 129.857 262.727V252.436H135.895V269.738H130.311L129.986 266.232L131.123 265.843C130.885 266.644 130.463 267.369 129.857 268.018C129.251 268.667 128.526 269.176 127.682 269.544C126.838 269.911 125.94 270.095 124.987 270.095ZM138.888 269.738V252.436H144.536L144.861 258.117L143.595 257.143C143.876 256.191 144.309 255.336 144.893 254.579C145.499 253.799 146.224 253.194 147.068 252.761C147.912 252.306 148.799 252.079 149.73 252.079C150.119 252.079 150.487 252.111 150.834 252.176C151.18 252.22 151.504 252.285 151.807 252.371L150.152 259.058C149.914 258.907 149.578 258.777 149.146 258.669C148.713 258.539 148.247 258.474 147.75 258.474C147.317 258.474 146.927 258.55 146.581 258.701C146.235 258.831 145.943 259.026 145.705 259.286C145.467 259.545 145.283 259.859 145.153 260.227C145.023 260.573 144.958 260.984 144.958 261.46V269.738H138.888ZM159.45 269.738L168.507 247.015H173.701L182.693 269.738H176.298L172.402 259.188C172.186 258.604 171.991 258.063 171.818 257.565C171.645 257.067 171.483 256.58 171.331 256.104C171.18 255.628 171.028 255.141 170.877 254.643C170.747 254.146 170.628 253.605 170.519 253.02L171.558 252.988C171.428 253.616 171.288 254.178 171.136 254.676C171.006 255.174 170.866 255.65 170.714 256.104C170.563 256.559 170.39 257.035 170.195 257.533C170.022 258.03 169.827 258.582 169.611 259.188L165.715 269.738H159.45ZM163.865 265.973L165.78 261.428H176.298L178.083 265.973H163.865ZM182.965 276.88V252.436H188.613L188.905 256.267L187.737 255.974C187.867 255.239 188.224 254.579 188.808 253.994C189.414 253.41 190.161 252.945 191.048 252.598C191.935 252.252 192.898 252.079 193.937 252.079C195.387 252.079 196.675 252.469 197.8 253.248C198.925 254.005 199.813 255.055 200.462 256.396C201.111 257.738 201.436 259.296 201.436 261.071C201.436 262.802 201.111 264.35 200.462 265.713C199.813 267.055 198.914 268.115 197.767 268.894C196.62 269.652 195.311 270.03 193.84 270.03C192.866 270.03 191.935 269.857 191.048 269.511C190.182 269.143 189.446 268.656 188.84 268.05C188.256 267.423 187.877 266.719 187.704 265.94L189.068 265.486V276.88H182.965ZM192.216 265.064C192.909 265.064 193.504 264.901 194.002 264.577C194.5 264.252 194.878 263.798 195.138 263.213C195.398 262.607 195.528 261.893 195.528 261.071C195.528 260.227 195.398 259.513 195.138 258.928C194.878 258.322 194.5 257.857 194.002 257.533C193.504 257.208 192.909 257.046 192.216 257.046C191.524 257.046 190.929 257.208 190.431 257.533C189.933 257.836 189.555 258.29 189.295 258.896C189.035 259.502 188.905 260.227 188.905 261.071C188.905 261.893 189.035 262.607 189.295 263.213C189.555 263.798 189.933 264.252 190.431 264.577C190.929 264.901 191.524 265.064 192.216 265.064ZM203.12 276.88V252.436H208.769L209.061 256.267L207.892 255.974C208.022 255.239 208.379 254.579 208.964 253.994C209.57 253.41 210.316 252.945 211.203 252.598C212.091 252.252 213.054 252.079 214.093 252.079C215.543 252.079 216.83 252.469 217.956 253.248C219.081 254.005 219.968 255.055 220.617 256.396C221.267 257.738 221.591 259.296 221.591 261.071C221.591 262.802 221.267 264.35 220.617 265.713C219.968 267.055 219.07 268.115 217.923 268.894C216.776 269.652 215.467 270.03 213.995 270.03C213.021 270.03 212.091 269.857 211.203 269.511C210.338 269.143 209.602 268.656 208.996 268.05C208.412 267.423 208.033 266.719 207.86 265.94L209.223 265.486V276.88H203.12ZM212.372 265.064C213.065 265.064 213.66 264.901 214.157 264.577C214.655 264.252 215.034 263.798 215.294 263.213C215.553 262.607 215.683 261.893 215.683 261.071C215.683 260.227 215.553 259.513 215.294 258.928C215.034 258.322 214.655 257.857 214.157 257.533C213.66 257.208 213.065 257.046 212.372 257.046C211.68 257.046 211.084 257.208 210.587 257.533C210.089 257.836 209.71 258.29 209.45 258.896C209.191 259.502 209.061 260.227 209.061 261.071C209.061 261.893 209.191 262.607 209.45 263.213C209.71 263.798 210.089 264.252 210.587 264.577C211.084 264.901 211.68 265.064 212.372 265.064Z" fill="#020202"/>
<g filter="url(#filter1_d_227_1762)">
<path d="M215.069 307.629C213.567 307.629 212.222 307.304 211.035 306.655C209.867 305.988 208.939 305.079 208.253 303.929C207.585 302.78 207.251 301.463 207.251 299.98C207.251 298.496 207.585 297.189 208.253 296.058C208.939 294.908 209.867 293.999 211.035 293.332C212.222 292.664 213.567 292.33 215.069 292.33C216.553 292.33 217.879 292.664 219.048 293.332C220.235 293.999 221.162 294.908 221.83 296.058C222.498 297.189 222.832 298.496 222.832 299.98C222.832 301.463 222.498 302.78 221.83 303.929C221.162 305.079 220.235 305.988 219.048 306.655C217.879 307.304 216.553 307.629 215.069 307.629ZM215.069 304.18C215.793 304.18 216.442 304.004 217.017 303.651C217.592 303.28 218.037 302.78 218.352 302.149C218.686 301.5 218.853 300.777 218.853 299.98C218.853 299.164 218.686 298.44 218.352 297.81C218.037 297.161 217.592 296.66 217.017 296.308C216.442 295.937 215.793 295.752 215.069 295.752C214.327 295.752 213.669 295.937 213.094 296.308C212.519 296.679 212.065 297.179 211.731 297.81C211.397 298.44 211.239 299.164 211.258 299.98C211.239 300.777 211.397 301.5 211.731 302.149C212.065 302.78 212.519 303.28 213.094 303.651C213.669 304.004 214.327 304.18 215.069 304.18Z" fill="#FF8946"/>
</g>
<g filter="url(#filter2_d_227_1762)">
<path d="M199.489 307.351V292.636H203.301L203.44 297.365L202.772 296.391C202.995 295.631 203.356 294.945 203.857 294.333C204.358 293.703 204.942 293.211 205.61 292.859C206.296 292.506 207.01 292.33 207.752 292.33C208.068 292.33 208.374 292.358 208.67 292.414C208.967 292.469 209.218 292.534 209.422 292.608L208.364 296.948C208.142 296.836 207.873 296.744 207.558 296.67C207.242 296.577 206.918 296.53 206.584 296.53C206.139 296.53 205.721 296.614 205.332 296.781C204.961 296.929 204.636 297.152 204.358 297.448C204.08 297.727 203.857 298.06 203.69 298.45C203.542 298.839 203.468 299.266 203.468 299.729V307.351H199.489Z" fill="#FF8946"/>
</g>
<g filter="url(#filter3_d_227_1762)">
<path d="M184.934 318.689V292.637H188.746L188.857 295.947L188.134 295.696C188.263 295.103 188.579 294.556 189.079 294.055C189.599 293.555 190.239 293.147 190.999 292.832C191.76 292.516 192.557 292.359 193.392 292.359C194.672 292.359 195.803 292.692 196.786 293.36C197.788 294.009 198.576 294.908 199.151 296.058C199.744 297.189 200.041 298.497 200.041 299.98C200.041 301.445 199.754 302.752 199.179 303.902C198.604 305.052 197.815 305.96 196.814 306.628C195.812 307.277 194.672 307.602 193.392 307.602C192.539 307.602 191.723 307.444 190.944 307.129C190.183 306.795 189.534 306.359 188.996 305.821C188.458 305.284 188.124 304.709 187.994 304.097L188.913 303.707V318.689H184.934ZM192.502 304.208C193.225 304.208 193.865 304.032 194.421 303.68C194.978 303.327 195.414 302.836 195.729 302.205C196.044 301.556 196.202 300.815 196.202 299.98C196.202 299.146 196.044 298.413 195.729 297.783C195.414 297.152 194.978 296.661 194.421 296.308C193.883 295.956 193.243 295.78 192.502 295.78C191.76 295.78 191.11 295.956 190.554 296.308C189.998 296.642 189.562 297.134 189.246 297.783C188.931 298.413 188.773 299.146 188.773 299.98C188.773 300.815 188.931 301.556 189.246 302.205C189.562 302.836 189.998 303.327 190.554 303.68C191.11 304.032 191.76 304.208 192.502 304.208Z" fill="#FFB546"/>
</g>
<g filter="url(#filter4_d_227_1762)">
<path d="M178.566 307.629C177.064 307.629 175.719 307.304 174.532 306.655C173.364 305.988 172.436 305.079 171.75 303.929C171.082 302.78 170.749 301.463 170.749 299.98C170.749 298.496 171.082 297.189 171.75 296.058C172.436 294.908 173.364 293.999 174.532 293.332C175.719 292.664 177.064 292.33 178.566 292.33C180.05 292.33 181.376 292.664 182.545 293.332C183.732 293.999 184.659 294.908 185.327 296.058C185.995 297.189 186.329 298.496 186.329 299.98C186.329 301.463 185.995 302.78 185.327 303.929C184.659 305.079 183.732 305.988 182.545 306.655C181.376 307.304 180.05 307.629 178.566 307.629ZM178.566 304.18C179.29 304.18 179.939 304.004 180.514 303.651C181.089 303.28 181.534 302.78 181.849 302.149C182.183 301.5 182.35 300.777 182.35 299.98C182.35 299.164 182.183 298.44 181.849 297.81C181.534 297.161 181.089 296.66 180.514 296.308C179.939 295.937 179.29 295.752 178.566 295.752C177.824 295.752 177.166 295.937 176.591 296.308C176.016 296.679 175.562 297.179 175.228 297.81C174.894 298.44 174.736 299.164 174.755 299.98C174.736 300.777 174.894 301.5 175.228 302.149C175.562 302.78 176.016 303.28 176.591 303.651C177.166 304.004 177.824 304.18 178.566 304.18Z" fill="#FF8946"/>
</g>
<g filter="url(#filter5_d_227_1762)">
<path d="M147.907 307.571V292.195H151.89L151.977 295.131L151.366 295.247C151.58 294.743 151.861 294.288 152.209 293.881C152.558 293.474 152.965 293.125 153.431 292.834C153.915 292.544 154.419 292.321 154.942 292.166C155.466 291.991 155.989 291.904 156.512 291.904C157.307 291.904 158.024 292.03 158.664 292.282C159.303 292.534 159.846 292.931 160.292 293.474C160.737 293.997 161.086 294.695 161.338 295.567L160.699 295.508L160.902 295.043C161.154 294.578 161.474 294.162 161.862 293.794C162.249 293.406 162.685 293.077 163.17 292.805C163.654 292.515 164.158 292.292 164.682 292.137C165.205 291.982 165.718 291.904 166.222 291.904C167.424 291.904 168.422 292.147 169.217 292.631C170.012 293.096 170.603 293.803 170.99 294.753C171.397 295.702 171.601 296.865 171.601 298.241V307.571H167.473V298.531C167.473 297.834 167.376 297.262 167.182 296.816C166.988 296.371 166.707 296.041 166.339 295.828C165.97 295.596 165.496 295.479 164.914 295.479C164.468 295.479 164.052 295.557 163.664 295.712C163.296 295.848 162.966 296.051 162.676 296.322C162.404 296.574 162.191 296.875 162.036 297.223C161.881 297.572 161.803 297.96 161.803 298.386V307.571H157.675V298.502C157.675 297.863 157.568 297.32 157.355 296.875C157.161 296.41 156.88 296.061 156.512 295.828C156.144 295.596 155.688 295.479 155.146 295.479C154.7 295.479 154.283 295.557 153.896 295.712C153.527 295.848 153.208 296.051 152.936 296.322C152.665 296.574 152.442 296.875 152.268 297.223C152.113 297.572 152.035 297.95 152.035 298.357V307.571H147.907Z" fill="#FFB546"/>
</g>
</g>
<path d="M176.329 61.1914C179.828 61.1914 182.666 64.0284 182.666 67.5279C182.666 71.0273 179.829 73.8656 176.329 73.8656C172.829 73.8656 169.992 71.0286 169.992 67.5279C169.991 64.0284 172.829 61.1914 176.329 61.1914Z" fill="#D7D7D7"/>
<path d="M128.334 57.8105H175.989C181.355 57.8105 185.706 62.161 185.706 67.5277C185.706 72.8943 181.355 77.2448 175.989 77.2448H128.334C122.968 77.2448 118.617 72.8943 118.617 67.5277C118.617 62.161 122.968 57.8105 128.334 57.8105Z" fill="black"/>
<path d="M173.372 71.244C175.432 71.244 177.175 69.6195 177.175 67.5263C177.175 65.4331 175.432 63.8086 173.372 63.8086C171.312 63.8086 169.57 65.4331 169.57 67.5263C169.569 69.6195 171.312 71.244 173.372 71.244Z" fill="url(#paint1_linear_227_1762)" fill-opacity="0.38" stroke="#1D1F22" stroke-width="1.963"/>
</g>
</g>
<defs>
<filter id="filter0_d_227_1762" x="-70.207" y="-58.5742" width="444.74" height="687.913" filterUnits="userSpaceOnUse" color-interpolation-filters="sRGB">
<feFlood flood-opacity="0" result="BackgroundImageFix"/>
<feColorMatrix in="SourceAlpha" type="matrix" values="0 0 0 0 0 0 0 0 0 0 0 0 0 0 0 0 0 0 127 0" result="hardAlpha"/>
<feOffset dy="4"/>
<feGaussianBlur stdDeviation="52.25"/>
<feComposite in2="hardAlpha" operator="out"/>
<feColorMatrix type="matrix" values="0 0 0 0 0 0 0 0 0 0 0 0 0 0 0 0 0 0 0.25 0"/>
<feBlend mode="normal" in2="BackgroundImageFix" result="effect1_dropShadow_227_1762"/>
<feBlend mode="normal" in="SourceGraphic" in2="effect1_dropShadow_227_1762" result="shape"/>
</filter>
<filter id="filter1_d_227_1762" x="195.351" y="279.43" width="43.3801" height="43.0986" filterUnits="userSpaceOnUse" color-interpolation-filters="sRGB">
<feFlood flood-opacity="0" result="BackgroundImageFix"/>
<feColorMatrix in="SourceAlpha" type="matrix" values="0 0 0 0 0 0 0 0 0 0 0 0 0 0 0 0 0 0 127 0" result="hardAlpha"/>
<feOffset dx="2" dy="1"/>
<feGaussianBlur stdDeviation="6.95"/>
<feComposite in2="hardAlpha" operator="out"/>
<feColorMatrix type="matrix" values="0 0 0 0 0 0 0 0 0 0 0 0 0 0 0 0 0 0 0.2 0"/>
<feBlend mode="normal" in2="BackgroundImageFix" result="effect1_dropShadow_227_1762"/>
<feBlend mode="normal" in="SourceGraphic" in2="effect1_dropShadow_227_1762" result="shape"/>
</filter>
<filter id="filter2_d_227_1762" x="187.589" y="279.43" width="37.7321" height="42.8205" filterUnits="userSpaceOnUse" color-interpolation-filters="sRGB">
<feFlood flood-opacity="0" result="BackgroundImageFix"/>
<feColorMatrix in="SourceAlpha" type="matrix" values="0 0 0 0 0 0 0 0 0 0 0 0 0 0 0 0 0 0 127 0" result="hardAlpha"/>
<feOffset dx="2" dy="1"/>
<feGaussianBlur stdDeviation="6.95"/>
<feComposite in2="hardAlpha" operator="out"/>
<feColorMatrix type="matrix" values="0 0 0 0 0 0 0 0 0 0 0 0 0 0 0 0 0 0 0.2 0"/>
<feBlend mode="normal" in2="BackgroundImageFix" result="effect1_dropShadow_227_1762"/>
<feBlend mode="normal" in="SourceGraphic" in2="effect1_dropShadow_227_1762" result="shape"/>
</filter>
<filter id="filter3_d_227_1762" x="173.034" y="279.459" width="42.9069" height="54.1303" filterUnits="userSpaceOnUse" color-interpolation-filters="sRGB">
<feFlood flood-opacity="0" result="BackgroundImageFix"/>
<feColorMatrix in="SourceAlpha" type="matrix" values="0 0 0 0 0 0 0 0 0 0 0 0 0 0 0 0 0 0 127 0" result="hardAlpha"/>
<feOffset dx="2" dy="1"/>
<feGaussianBlur stdDeviation="6.95"/>
<feComposite in2="hardAlpha" operator="out"/>
<feColorMatrix type="matrix" values="0 0 0 0 0 0 0 0 0 0 0 0 0 0 0 0 0 0 0.2 0"/>
<feBlend mode="normal" in2="BackgroundImageFix" result="effect1_dropShadow_227_1762"/>
<feBlend mode="normal" in="SourceGraphic" in2="effect1_dropShadow_227_1762" result="shape"/>
</filter>
<filter id="filter4_d_227_1762" x="158.849" y="279.43" width="43.3801" height="43.0986" filterUnits="userSpaceOnUse" color-interpolation-filters="sRGB">
<feFlood flood-opacity="0" result="BackgroundImageFix"/>
<feColorMatrix in="SourceAlpha" type="matrix" values="0 0 0 0 0 0 0 0 0 0 0 0 0 0 0 0 0 0 127 0" result="hardAlpha"/>
<feOffset dx="2" dy="1"/>
<feGaussianBlur stdDeviation="6.95"/>
<feComposite in2="hardAlpha" operator="out"/>
<feColorMatrix type="matrix" values="0 0 0 0 0 0 0 0 0 0 0 0 0 0 0 0 0 0 0.2 0"/>
<feBlend mode="normal" in2="BackgroundImageFix" result="effect1_dropShadow_227_1762"/>
<feBlend mode="normal" in="SourceGraphic" in2="effect1_dropShadow_227_1762" result="shape"/>
</filter>
<filter id="filter5_d_227_1762" x="136.007" y="279.004" width="51.4938" height="43.4667" filterUnits="userSpaceOnUse" color-interpolation-filters="sRGB">
<feFlood flood-opacity="0" result="BackgroundImageFix"/>
<feColorMatrix in="SourceAlpha" type="matrix" values="0 0 0 0 0 0 0 0 0 0 0 0 0 0 0 0 0 0 127 0" result="hardAlpha"/>
<feOffset dx="2" dy="1"/>
<feGaussianBlur stdDeviation="6.95"/>
<feComposite in2="hardAlpha" operator="out"/>
<feColorMatrix type="matrix" values="0 0 0 0 0 0 0 0 0 0 0 0 0 0 0 0 0 0 0.2 0"/>
<feBlend mode="normal" in2="BackgroundImageFix" result="effect1_dropShadow_227_1762"/>
<feBlend mode="normal" in="SourceGraphic" in2="effect1_dropShadow_227_1762" result="shape"/>
</filter>
<linearGradient id="paint0_linear_227_1762" x1="173.402" y1="69.3185" x2="173.349" y2="66.1603" gradientUnits="userSpaceOnUse">
<stop offset="0.0382" stop-color="#21316F"/>
<stop offset="1" stop-color="#27314B"/>
</linearGradient>
<linearGradient id="paint1_linear_227_1762" x1="173.402" y1="69.3185" x2="173.349" y2="66.1603" gradientUnits="userSpaceOnUse">
<stop offset="0.0382"/>
<stop offset="1" stop-color="#27314B"/>
</linearGradient>
<clipPath id="clip0_227_1762">
<rect width="505" height="589" fill="white" transform="translate(0 0.5)"/>
</clipPath>
</defs>
</svg>
